<svg id="Layer_1" data-name="Layer 1" xmlns="http://www.w3.org/2000/svg" xmlns:xlink="http://www.w3.org/1999/xlink" viewBox="0 0 693.96 571.7"><defs><style>.cls-1{fill:none;}.cls-2{opacity:0.28;}.cls-3{clip-path:url(#clip-path);}.cls-4{fill:#0775ed;}.cls-5{opacity:0.16;}.cls-6{opacity:0.3;}.cls-7{fill:#f0f0fc;}.cls-8{opacity:0.48;}</style><clipPath id="clip-path"><circle class="cls-1" cx="312.28" cy="285.85" r="92.89"/></clipPath></defs><polygon class="cls-2" points="329.55 230.5 323.25 230.5 323.08 227.19 329.55 230.5"/><g class="cls-3"><circle class="cls-4" cx="312.28" cy="285.85" r="92.89"/><path class="cls-5" d="M328.07,280.26a23.25,23.25,0,0,1-2.23,1.6,25.22,25.22,0,0,1-8.68,3.5v-5.14a20,20,0,0,0,7.75-3.88,2.37,2.37,0,0,1,.63-.37,2.52,2.52,0,0,1,2.53,4.29Z"/><path class="cls-2" d="M328.07,280.26a23.25,23.25,0,0,1-2.23,1.6l-.3-5.89a2.52,2.52,0,0,1,2.53,4.29Z"/><path d="M312.28,285.85a24.8,24.8,0,0,1-7.86-1.28l3.54-4.23a20,20,0,0,0,17-4,2.37,2.37,0,0,1,.63-.37,2.52,2.52,0,0,1,2.53,4.29,23.25,23.25,0,0,1-2.23,1.6,25.22,25.22,0,0,1-8.68,3.5A24.85,24.85,0,0,1,312.28,285.85Z"/><path class="cls-6" d="M312.28,295.91a35.24,35.24,0,0,1-9.36-1.26l-3.77-3.77,1.83-2.19a30.19,30.19,0,0,0,41.49-28V239l4.1-4.91.93.65v25.91a35.25,35.25,0,0,1-21.1,32.25,34.68,34.68,0,0,1-9.24,2.63A35.82,35.82,0,0,1,312.28,295.91Z"/><path class="cls-6" d="M365.11,348.75a2.51,2.51,0,0,1-2.51,2.51h-3.07l-5-5H360A42.77,42.77,0,0,0,317.31,306h-3.07l-5-5h8.09a47.79,47.79,0,0,1,47.8,47.8Z"/><path class="cls-7" d="M340,225.47H312.28a35.22,35.22,0,1,0,0,70.44,35.82,35.82,0,0,0,4.88-.34,34.68,34.68,0,0,0,9.24-2.63,35.25,35.25,0,0,0,21.1-32.25V233A7.54,7.54,0,0,0,340,225.47Zm2.52,35.22a30.2,30.2,0,1,1-30.19-30.19H340a2.52,2.52,0,0,1,2.52,2.52Z"/><path class="cls-7" d="M326.85,301.91a47.56,47.56,0,0,0-9.54-1H307.25a47.85,47.85,0,0,0-47.81,47.8,2.51,2.51,0,0,0,2.52,2.51H362.6a2.51,2.51,0,0,0,2.51-2.51A47.86,47.86,0,0,0,326.85,301.91Zm-62.31,44.32A42.86,42.86,0,0,1,307.25,306h10.06A42.77,42.77,0,0,1,360,346.23Z"/><path class="cls-7" d="M328.07,280.26a23.25,23.25,0,0,1-2.23,1.6,25.22,25.22,0,0,1-8.68,3.5,25.25,25.25,0,0,1-20.68-5.1,2.52,2.52,0,0,1,3.17-3.92,20,20,0,0,0,25.26,0,2.37,2.37,0,0,1,.63-.37,2.52,2.52,0,0,1,2.53,4.29Z"/><path class="cls-8" d="M584.68,401.55l-79,95.9-48-48-49,43.95L271.28,351.26H362.6a2.51,2.51,0,0,0,2.51-2.51,47.79,47.79,0,0,0-47.8-47.8h-8.09l-6.3-6.3a35.24,35.24,0,0,0,9.36,1.26,35.82,35.82,0,0,0,4.88-.34,34.68,34.68,0,0,0,9.24-2.63,35.25,35.25,0,0,0,21.1-32.25V234.78Z"/></g></svg>